<svg width="32" height="32" viewBox="0 0 32 32" fill="none" xmlns="http://www.w3.org/2000/svg">
  <!-- Background circle with gradient -->
  <circle cx="16" cy="16" r="16" fill="url(#gradient)" />
  
  <!-- Git branch icon -->
  <path d="M8 12C8 10.8954 8.89543 10 10 10C11.1046 10 12 10.8954 12 12C12 12.7403 11.5978 13.3866 11 13.7324V18.2676C11.5978 18.6134 12 19.2597 12 20C12 21.1046 11.1046 22 10 22C8.89543 22 8 21.1046 8 20C8 19.2597 8.40220 18.6134 9 18.2676V13.7324C8.40220 13.3866 8 12.7403 8 12Z" fill="white" opacity="0.9"/>
  
  <!-- AI neural network nodes -->
  <circle cx="20" cy="8" r="1.5" fill="#22d3ee" />
  <circle cx="24" cy="12" r="1.5" fill="#60a5fa" />
  <circle cx="20" cy="16" r="1.5" fill="#22d3ee" />
  <circle cx="24" cy="20" r="1.5" fill="#60a5fa" />
  
  <!-- Connecting lines for neural network -->
  <path d="M20 8L24 12M24 12L20 16M20 16L24 20" stroke="white" stroke-width="1" opacity="0.6" stroke-linecap="round"/>
  
  <!-- Git merge arrow -->
  <path d="M14 16L18 16M16 14L18 16L16 18" stroke="white" stroke-width="1.5" fill="none" stroke-linecap="round" stroke-linejoin="round"/>
  
  <defs>
    <linearGradient id="gradient" x1="0%" y1="0%" x2="100%" y2="100%">
      <stop offset="0%" style="stop-color:#22d3ee;stop-opacity:1" />
      <stop offset="100%" style="stop-color:#60a5fa;stop-opacity:1" />
    </linearGradient>
  </defs>
</svg>
